<?xml version="1.0" standalone="no"?>
<!DOCTYPE svg PUBLIC "-//W3C//DTD SVG 20010904//EN"
 "http://www.w3.org/TR/2001/REC-SVG-20010904/DTD/svg10.dtd">
<svg version="1.0" xmlns="http://www.w3.org/2000/svg"
 width="2744.000000pt" height="2744.000000pt" viewBox="0 0 2744.000000 2744.000000"
 preserveAspectRatio="xMidYMid meet">
<metadata>
Created by potrace 1.14, written by Peter Selinger 2001-2017
</metadata>
<g transform="translate(0.000000,2744.000000) scale(0.100000,-0.100000)"
fill="#000000" stroke="none">
<path d="M23702 26144 c-20 -14 -26 -125 -8 -149 11 -15 31 -18 147 -19 l134
-1 1 -428 c0 -464 -2 -445 54 -448 49 -4 110 -1 135 5 l25 6 0 434 0 433 136
0 c89 0 140 5 147 12 15 15 15 137 0 152 -16 16 -749 19 -771 3z"/>
<path d="M24683 26152 c-20 -2 -40 -13 -53 -29 -19 -25 -20 -39 -20 -513 0
-416 2 -489 15 -500 16 -13 127 -17 161 -6 12 4 24 14 26 24 2 9 3 205 3 434
0 229 1 416 2 414 2 -1 42 -115 89 -252 206 -601 207 -605 228 -616 31 -17
164 -14 181 3 7 8 41 93 75 189 35 96 85 238 112 315 28 77 64 182 82 233 18
50 36 96 42 102 6 6 9 -138 9 -411 0 -411 0 -421 20 -432 26 -14 152 -12 169
3 12 9 14 93 13 505 -2 594 14 537 -157 536 -62 0 -125 -5 -141 -11 -30 -13
-57 -61 -107 -195 -17 -44 -67 -177 -111 -295 -45 -119 -81 -221 -81 -228 0
-29 -17 -8 -34 41 -10 28 -22 61 -27 72 -5 11 -24 63 -43 115 -110 308 -158
434 -174 455 -9 14 -31 29 -47 35 -31 10 -173 18 -232 12z"/>
<path d="M4529 25866 c-2 -2 -53 -7 -114 -11 -118 -7 -144 -9 -245 -21 -36 -4
-71 -7 -78 -7 -17 0 -5 -10 16 -13 9 -1 40 -5 67 -10 28 -4 57 -8 65 -9 26 -3
111 -16 133 -21 29 -6 65 -13 102 -20 626 -117 1283 -363 1855 -694 69 -39
141 -81 160 -92 19 -11 118 -76 220 -144 219 -146 460 -330 660 -503 131 -113
475 -449 590 -576 59 -64 213 -244 270 -315 25 -30 47 -57 50 -60 3 -3 39 -50
80 -105 41 -55 77 -102 81 -105 3 -3 21 -27 40 -55 18 -27 36 -52 39 -55 22
-22 244 -359 332 -505 171 -283 466 -851 455 -879 -4 -9 -142 -43 -297 -72
-14 -3 -33 -7 -42 -10 -10 -3 -30 -8 -45 -10 -34 -6 -243 -51 -298 -64 -36 -9
-300 -65 -564 -121 -52 -11 -97 -22 -100 -24 -3 -1 -24 -6 -46 -9 -22 -4 -78
-15 -125 -26 -125 -28 -449 -98 -495 -106 -37 -7 -38 -8 -15 -16 13 -5 126
-31 250 -59 207 -46 624 -147 695 -169 17 -5 129 -37 250 -70 439 -123 934
-299 1325 -472 134 -60 464 -227 595 -303 197 -113 186 -106 218 -128 16 -10
30 -17 31 -15 27 31 232 266 240 273 6 6 49 53 96 105 328 367 778 793 1150
1091 98 78 371 285 435 329 20 14 42 30 48 35 7 6 32 23 57 40 25 16 47 32 50
35 6 7 312 208 356 235 18 11 113 69 211 128 204 124 212 118 -92 67 -99 -17
-191 -32 -205 -34 -26 -4 -140 -23 -175 -30 -11 -2 -41 -6 -66 -10 -44 -6 -66
-10 -126 -21 -16 -3 -140 -23 -278 -45 -137 -23 -261 -43 -275 -45 -14 -3 -97
-17 -185 -31 -88 -14 -167 -28 -176 -29 -8 -2 -62 -11 -119 -21 -99 -16 -105
-16 -115 0 -111 184 -336 501 -493 695 -29 37 -58 73 -65 81 -18 23 -111 134
-117 140 -3 3 -43 48 -90 100 -47 52 -96 107 -110 121 -196 206 -396 399 -574
554 -38 33 -74 65 -80 70 -6 6 -47 40 -91 75 -44 36 -85 70 -91 75 -6 6 -26
22 -45 37 -603 475 -1215 844 -1924 1163 -57 26 -92 41 -160 70 -315 135 -801
302 -1105 380 -36 9 -72 19 -80 21 -185 49 -540 122 -735 150 -22 3 -49 7 -60
9 -11 2 -45 6 -75 10 -30 3 -66 8 -80 10 -14 3 -51 7 -83 10 -31 3 -83 7 -114
10 -32 3 -87 8 -123 11 -78 7 -646 15 -651 10z"/>
<path d="M22329 25865 c-2 -1 -56 -6 -120 -9 -64 -4 -127 -9 -140 -11 -13 -2
-58 -6 -100 -10 -42 -3 -85 -7 -95 -9 -11 -2 -44 -7 -75 -10 -31 -4 -66 -8
-77 -11 -11 -2 -42 -7 -69 -10 -64 -9 -190 -31 -283 -49 -41 -8 -86 -17 -100
-19 -14 -3 -55 -12 -91 -21 -37 -8 -78 -17 -90 -20 -35 -6 -146 -34 -209 -52
-30 -8 -63 -17 -73 -19 -81 -18 -457 -137 -643 -203 -116 -42 -370 -141 -439
-172 -259 -114 -345 -154 -495 -229 -266 -133 -407 -210 -670 -369 -132 -80
-451 -289 -535 -351 -27 -21 -93 -69 -145 -107 -92 -67 -120 -88 -144 -109 -6
-5 -29 -23 -51 -39 -272 -199 -819 -716 -1070 -1011 -33 -38 -65 -74 -71 -80
-21 -18 -189 -228 -281 -350 -105 -140 -184 -252 -295 -422 -86 -131 -87 -132
-158 -114 -19 5 -53 12 -75 15 -22 3 -53 7 -70 10 -16 3 -61 10 -100 16 -38 6
-90 15 -115 20 -25 5 -63 11 -85 14 -22 3 -51 8 -65 10 -14 3 -191 32 -395 66
-203 33 -381 63 -395 65 -347 58 -583 95 -586 92 -3 -3 123 -81 228 -142 58
-33 245 -154 383 -246 142 -95 186 -126 285 -196 34 -25 323 -243 393 -297
130 -101 430 -361 572 -495 187 -179 500 -499 650 -665 6 -6 30 -34 55 -61 25
-28 72 -82 105 -120 33 -38 78 -89 100 -112 l40 -43 60 38 c107 68 316 184
500 276 99 50 182 91 185 92 3 0 28 11 55 23 239 109 505 214 800 316 44 15
87 30 95 33 8 3 20 6 25 8 6 1 46 14 90 29 253 83 912 262 1069 291 16 2 32 7
36 9 4 2 21 7 38 10 17 3 70 14 119 26 48 12 99 23 113 25 21 4 62 13 80 19 3
1 23 5 45 10 22 5 43 10 48 11 4 1 13 2 20 4 6 1 -46 15 -118 30 -71 16 -139
31 -150 34 -64 14 -315 67 -340 72 -16 3 -46 9 -65 14 -30 8 -279 62 -336 73
-10 2 -30 7 -44 10 -14 4 -133 29 -265 57 -132 28 -276 59 -320 70 -44 10 -96
21 -116 24 -20 3 -42 8 -50 10 -8 3 -26 8 -41 11 -16 3 -38 7 -50 10 -13 3
-52 11 -87 18 -36 8 -66 18 -68 23 -5 16 248 515 359 709 181 314 376 609 587
885 52 69 98 127 101 130 3 3 24 27 45 55 177 222 532 596 745 785 40 36 78
70 84 75 71 65 358 297 416 335 13 8 35 24 49 36 115 90 453 309 621 401 30
16 72 40 94 52 87 50 458 231 472 231 3 0 29 11 57 24 133 62 593 227 676 242
14 3 28 7 33 10 4 3 16 7 25 9 10 1 45 10 78 19 33 9 71 19 85 22 14 3 43 10
65 16 47 12 32 9 220 47 83 17 172 33 199 36 28 4 53 8 57 10 3 3 37 7 75 11
38 3 73 9 77 13 4 4 2 8 -5 8 -12 0 -58 5 -178 19 -25 2 -72 7 -105 10 -67 6
-661 15 -666 9z"/>
<path d="M10608 19562 c-422 -261 -855 -467 -1403 -668 -177 -65 -596 -199
-730 -234 -16 -4 -81 -22 -144 -40 -62 -17 -120 -33 -130 -35 -9 -3 -115 -29
-236 -60 -186 -47 -572 -136 -654 -152 -57 -10 -49 -20 31 -36 46 -9 169 -35
273 -58 105 -22 199 -42 210 -45 11 -2 72 -15 135 -29 63 -14 135 -30 160 -35
25 -5 54 -11 65 -14 17 -4 52 -12 185 -41 8 -2 51 -11 95 -20 44 -9 87 -18 95
-20 8 -2 80 -17 160 -34 80 -17 172 -38 205 -46 33 -8 74 -16 90 -19 17 -3 81
-17 144 -31 63 -14 123 -25 134 -25 16 0 18 -5 12 -27 -18 -75 -282 -581 -445
-853 -116 -195 -379 -582 -492 -725 -4 -5 -24 -30 -44 -55 -19 -25 -41 -52
-47 -60 -161 -207 -316 -380 -557 -620 -175 -176 -285 -277 -419 -388 -24 -21
-49 -42 -55 -47 -50 -46 -305 -239 -436 -332 -135 -94 -499 -323 -515 -323 -2
0 -28 -14 -57 -31 -70 -42 -363 -188 -458 -229 -41 -18 -95 -41 -119 -52 -152
-68 -492 -187 -721 -252 -173 -49 -508 -123 -640 -141 -8 -1 -40 -5 -70 -10
-77 -11 -92 -13 -118 -14 -13 -1 -21 -5 -17 -10 3 -6 13 -9 23 -9 15 0 72 -6
157 -17 200 -27 710 -26 1030 0 67 6 306 33 345 40 14 2 70 11 125 20 123 20
136 22 199 34 28 6 62 12 76 15 43 7 261 56 365 83 55 13 107 26 115 28 103
24 516 155 690 218 401 147 873 359 1196 538 155 85 350 199 459 267 66 41
143 89 170 106 75 46 446 306 505 353 8 7 62 49 120 94 58 46 107 86 110 89 3
3 14 13 26 21 89 61 394 337 609 553 208 209 243 245 360 380 33 38 65 74 70
80 6 6 49 58 95 116 46 58 87 107 90 110 29 26 328 449 404 573 27 42 53 77
60 77 11 0 108 -15 171 -26 17 -3 41 -7 55 -9 14 -2 108 -18 210 -35 102 -17
196 -33 210 -35 14 -2 70 -11 125 -20 55 -9 114 -18 130 -21 17 -2 80 -13 140
-24 61 -10 128 -21 150 -25 22 -3 94 -15 160 -26 66 -11 134 -22 150 -25 17
-2 55 -9 85 -14 30 -5 69 -12 85 -14 17 -3 71 -12 120 -20 199 -33 196 -37 50
51 -246 149 -667 421 -685 442 -3 3 -34 26 -70 51 -36 24 -69 48 -75 52 -5 4
-82 63 -170 129 -88 67 -182 140 -210 163 -27 22 -59 48 -70 57 -267 216 -749
670 -970 914 -23 25 -169 185 -200 219 -5 6 -39 45 -75 86 -36 41 -80 92 -99
112 -19 21 -40 47 -48 58 -17 24 -20 24 -55 2z"/>
<path d="M16669 19512 c-271 -323 -717 -784 -1028 -1062 -40 -36 -79 -70 -86
-77 -11 -11 -141 -122 -203 -175 -13 -10 -65 -52 -115 -91 -51 -40 -94 -74
-97 -78 -12 -13 -296 -224 -420 -311 -224 -156 -383 -259 -668 -431 -73 -44
-131 -82 -128 -84 2 -2 71 7 152 21 82 14 163 27 179 30 35 5 338 55 375 62
14 2 41 7 60 10 19 2 58 9 85 14 28 5 64 11 80 14 17 2 57 9 90 14 33 6 78 14
100 17 50 7 93 14 125 20 14 3 41 7 60 10 19 3 62 10 95 16 33 6 73 13 89 15
17 2 84 13 150 24 67 11 135 23 151 25 17 3 41 7 55 10 14 3 46 7 72 11 47 5
47 5 74 -38 77 -124 245 -368 328 -478 60 -78 228 -293 236 -300 3 -3 50 -57
105 -120 206 -239 495 -530 734 -740 40 -36 79 -70 85 -75 6 -6 36 -30 66 -55
30 -25 57 -47 60 -51 3 -3 52 -43 110 -88 58 -45 113 -89 124 -98 10 -8 69
-52 130 -97 905 -667 1918 -1156 2981 -1437 146 -39 374 -92 445 -104 19 -3
42 -8 50 -10 8 -2 31 -7 50 -10 19 -3 42 -8 50 -10 8 -2 33 -6 55 -10 37 -5
139 -21 195 -30 14 -2 52 -7 85 -11 33 -3 68 -8 77 -9 9 -2 48 -6 85 -10 37
-3 86 -8 108 -10 122 -13 278 -19 500 -19 259 -1 414 6 620 30 71 7 106 23 60
25 -16 1 -39 3 -50 4 -20 2 -34 5 -165 26 -36 6 -78 13 -95 16 -16 2 -61 12
-100 20 -38 8 -88 19 -110 23 -157 32 -523 138 -705 203 -708 256 -1332 618
-1950 1131 -247 206 -555 509 -781 771 -97 112 -214 254 -259 315 -14 18 -30
38 -35 44 -6 6 -17 21 -25 32 -8 12 -65 91 -125 175 -97 135 -250 365 -312
469 -172 286 -215 365 -365 668 -66 134 -116 247 -112 252 5 4 47 15 94 25 47
9 92 18 100 20 66 15 261 56 285 61 17 3 46 9 65 14 38 10 449 99 490 106 14
3 41 9 60 14 19 5 49 12 65 14 37 7 57 11 120 26 28 6 61 14 75 16 14 3 63 14
110 24 47 10 100 22 119 25 19 3 37 7 40 9 3 2 22 7 41 10 19 3 64 12 101 20
36 9 74 17 85 19 68 12 184 41 184 46 0 3 -71 21 -157 40 -193 42 -906 218
-1023 254 -47 14 -153 46 -237 72 -695 209 -1284 461 -1821 777 -73 43 -134
78 -135 78 -1 0 -27 -31 -58 -68z"/>
<path d="M4589 12601 c-1 -9 -2 -44 -2 -79 l-2 -63 180 -4 c205 -3 291 -21
406 -81 82 -43 173 -123 200 -176 26 -51 47 -164 56 -292 9 -138 9 -4511 0
-4661 -11 -192 -34 -252 -132 -350 -118 -119 -251 -160 -530 -164 -93 -1 -172
-4 -174 -7 -2 -2 -5 -38 -5 -80 l-1 -75 1610 4 c885 2 1626 7 1645 10 19 3 69
8 110 11 124 10 315 46 495 93 94 24 177 45 185 48 8 2 15 4 15 5 0 1 7 3 15
5 42 8 278 93 380 137 522 223 917 567 1208 1050 47 79 142 270 171 348 12 30
26 64 31 75 29 62 120 355 145 465 16 74 45 238 50 290 4 36 9 73 11 84 7 35
18 271 18 386 0 122 -12 371 -19 392 -2 7 -6 38 -9 68 -3 30 -12 96 -21 145
-9 50 -18 104 -21 120 -10 58 -46 191 -81 305 -85 275 -217 555 -376 795 -53
80 -77 112 -152 204 -103 126 -261 278 -395 380 -30 22 -59 45 -65 49 -122 97
-417 259 -598 329 -165 63 -420 134 -582 162 -33 6 -69 12 -80 14 -25 6 -108
18 -154 22 -19 2 -50 6 -70 9 -58 9 -121 15 -203 21 -42 4 -107 9 -145 12 -37
3 -753 6 -1590 8 -1408 3 -1523 2 -1524 -14z m2726 -326 c55 -4 111 -8 125
-10 14 -2 54 -6 90 -10 36 -3 72 -8 80 -10 8 -2 35 -7 59 -10 119 -17 304 -77
363 -117 14 -10 29 -18 33 -18 24 0 206 -141 291 -225 182 -181 307 -375 452
-705 35 -80 111 -325 138 -445 83 -369 118 -714 118 -1175 0 -180 -9 -446 -18
-535 -2 -16 -6 -64 -10 -105 -4 -41 -9 -86 -11 -100 -2 -14 -7 -45 -10 -70
-35 -263 -87 -491 -162 -710 -147 -427 -394 -769 -678 -937 -82 -48 -244 -117
-304 -129 -14 -3 -28 -7 -33 -10 -4 -3 -54 -14 -110 -25 -75 -15 -153 -22
-288 -24 -209 -4 -276 6 -377 55 -116 57 -156 133 -169 320 -11 151 -11 4994
0 5002 11 7 256 3 421 -7z"/>
<path d="M10850 12539 c0 -44 3 -79 8 -80 4 0 81 -2 172 -3 193 -4 294 -22
395 -71 147 -70 230 -177 263 -338 10 -50 11 -4680 1 -4782 -16 -165 -22 -193
-62 -273 -62 -128 -204 -223 -367 -247 -89 -13 -107 -14 -257 -14 l-153 -1 0
-80 0 -80 2615 0 c1438 0 2615 3 2616 8 0 4 2 16 4 27 2 11 15 103 30 205 14
102 27 196 30 210 2 14 6 48 10 75 6 48 12 91 20 145 2 14 13 93 25 175 11 83
22 159 24 170 5 26 18 121 22 160 1 17 5 46 9 65 3 19 8 55 11 80 2 25 6 52 9
60 2 8 7 40 10 70 3 30 8 66 10 80 11 68 35 240 39 275 3 22 8 57 11 78 l6 37
-84 0 -84 0 -47 -141 c-106 -322 -225 -549 -410 -789 -56 -71 -271 -271 -346
-321 -196 -131 -407 -219 -655 -276 -118 -26 -277 -48 -425 -58 -104 -7 -675
-7 -730 0 -135 17 -207 46 -281 112 -76 69 -103 124 -125 258 -4 22 -9 525
-11 1117 l-5 1077 104 -4 c325 -15 513 -64 659 -171 200 -147 400 -518 473
-879 23 -111 22 -111 35 -200 7 -44 14 -94 17 -112 5 -36 23 -41 122 -35 l52
4 0 1578 0 1578 -82 -1 -82 -2 -7 -35 c-4 -19 -15 -82 -23 -140 -23 -147 -24
-155 -46 -251 -81 -352 -213 -625 -369 -764 -59 -52 -124 -96 -193 -130 -38
-18 -68 -31 -68 -28 0 3 -6 1 -12 -4 -15 -12 -153 -49 -213 -57 -76 -11 -150
-17 -255 -18 l-105 -2 -3 1237 -2 1236 507 -4 c280 -2 538 -6 574 -9 176 -14
203 -17 233 -21 17 -3 47 -7 66 -9 196 -24 420 -110 600 -231 277 -184 419
-411 550 -875 18 -63 34 -126 37 -139 7 -43 32 -143 35 -146 5 -5 48 -7 106
-6 l52 1 0 893 0 894 -2530 0 -2530 0 0 -78z"/>
<path d="M16450 12539 c0 -43 3 -80 8 -82 4 -3 32 -8 62 -11 152 -18 311 -80
381 -148 63 -61 168 -247 298 -530 17 -38 45 -98 62 -135 105 -228 549 -1263
549 -1281 0 -7 5 -12 10 -12 6 0 10 -5 10 -12 0 -9 268 -647 325 -773 7 -16
34 -79 60 -140 26 -60 54 -126 62 -145 26 -60 39 -91 103 -240 132 -310 383
-897 395 -925 8 -16 94 -217 191 -445 192 -452 466 -1091 494 -1155 9 -22 20
-48 23 -57 5 -15 19 -18 87 -18 44 0 80 4 80 9 0 5 13 38 29 73 16 35 59 131
96 213 73 163 239 532 286 633 16 35 29 65 29 67 0 3 57 130 85 190 22 47 140
310 331 738 46 103 88 195 93 205 5 9 13 28 19 42 24 57 128 289 272 605 37
83 77 170 88 195 37 84 60 135 125 280 36 80 156 348 267 595 337 749 380 846
436 963 30 62 54 115 54 118 0 5 195 394 219 437 9 16 21 36 26 45 6 9 25 44
44 77 154 269 386 459 641 524 73 19 78 27 72 126 l-4 52 -989 0 -989 0 1 -81
1 -81 98 -2 c54 -1 139 -9 189 -18 354 -61 500 -195 501 -457 0 -91 -11 -149
-52 -278 -42 -133 -204 -539 -293 -734 -13 -28 -52 -116 -88 -196 -36 -80 -76
-170 -90 -200 -27 -60 -115 -257 -317 -710 -133 -297 -238 -531 -291 -648 -16
-34 -29 -64 -29 -66 0 -2 -17 -42 -39 -88 -21 -45 -53 -117 -71 -158 -18 -41
-47 -106 -65 -145 -18 -38 -47 -104 -65 -145 -18 -41 -47 -106 -65 -145 -18
-38 -34 -77 -37 -85 -4 -11 -8 -8 -16 10 -5 15 -108 255 -227 535 -119 281
-248 584 -287 675 -38 91 -73 174 -78 185 -13 28 -122 284 -220 515 -92 220
-102 241 -123 290 -34 81 -79 186 -157 370 -45 107 -131 308 -190 445 -217
505 -263 635 -264 740 0 82 14 128 52 171 81 91 243 133 535 139 76 2 140 5
143 7 4 4 7 100 5 139 -1 15 -125 16 -1446 16 l-1445 0 0 -78z"/>
<path d="M9543 3809 c-188 -33 -271 -263 -147 -407 53 -63 104 -86 189 -87 81
0 128 19 182 74 47 48 63 81 69 145 17 169 -127 304 -293 275z"/>
<path d="M16143 3809 c-49 -9 -93 -30 -126 -61 -29 -28 -71 -88 -61 -88 3 0 1
-6 -6 -14 -17 -22 -15 -135 4 -181 39 -93 138 -156 235 -150 91 5 126 20 180
77 50 52 70 111 65 192 -10 147 -143 250 -291 225z"/>
<path d="M18225 3808 c-102 -18 -193 -121 -196 -223 l-1 -40 -9 44 c-17 88
-92 165 -193 198 -70 22 -297 26 -391 7 -196 -42 -362 -184 -422 -362 -17 -53
-21 -90 -22 -205 -1 -77 -4 -143 -6 -147 -2 -3 -51 -5 -109 -5 -120 1 -107 13
-108 -100 l-1 -60 112 0 112 1 -3 -601 c-3 -575 -4 -601 -23 -632 -24 -40 -69
-63 -141 -70 -30 -3 -54 -9 -55 -12 0 -3 -2 -16 -3 -28 l-3 -23 452 0 452 0 1
29 c1 28 -1 28 -63 33 -41 4 -76 13 -99 28 -63 38 -63 44 -64 696 l-1 580 112
0 112 -1 1 78 c0 42 -2 78 -5 78 -3 1 -53 2 -111 3 l-105 1 -2 75 c-8 318 -5
469 11 502 31 64 101 86 151 46 27 -21 27 -24 20 -87 -10 -92 -8 -109 15 -146
30 -48 81 -70 165 -70 52 1 81 6 112 23 45 23 93 78 93 105 0 10 5 17 10 17 6
0 10 -10 10 -23 0 -12 9 -40 21 -62 50 -96 131 -145 233 -141 264 8 338 355
101 474 -50 25 -96 31 -160 20z"/>
<path d="M7915 3795 c-230 -51 -417 -215 -486 -427 -20 -62 -24 -92 -23 -198
0 -115 3 -131 31 -202 37 -94 102 -186 182 -261 96 -88 220 -164 533 -325 186
-95 256 -142 321 -211 102 -109 128 -239 71 -355 -66 -136 -213 -210 -398
-201 -161 8 -293 70 -430 203 -109 106 -183 238 -233 418 -24 83 -31 99 -48
99 -11 0 -24 -3 -30 -7 -8 -5 -12 -668 -6 -810 1 -28 59 -24 70 5 12 30 69 83
104 96 44 17 86 13 162 -15 172 -63 238 -84 282 -90 27 -3 51 -8 55 -11 12 -6
186 -4 238 3 174 24 313 90 429 203 115 110 159 188 198 341 12 46 10 206 -3
262 -17 73 -61 171 -100 225 -28 39 -154 163 -165 163 -3 0 -17 9 -30 21 -42
36 -227 142 -426 243 -228 116 -293 156 -362 226 -69 70 -94 120 -97 198 -4
113 63 212 182 268 51 23 72 27 159 28 55 1 113 -2 128 -6 173 -43 333 -165
422 -323 32 -57 89 -195 81 -195 -2 0 2 -19 8 -42 11 -37 17 -42 45 -44 l32
-3 -6 277 c-4 152 -8 319 -9 370 -1 92 -1 92 -27 92 -22 0 -27 -6 -39 -48 -15
-56 -26 -74 -59 -91 -33 -18 -70 -9 -221 55 -72 30 -138 57 -148 59 -9 2 -36
8 -59 13 -62 14 -259 13 -328 -3z"/>
<path d="M3475 3760 c-1 -3 -5 -17 -8 -31 -6 -25 -5 -26 46 -32 199 -23 234
-69 192 -251 -15 -62 -80 -291 -261 -921 -42 -143 -100 -345 -130 -448 -111
-387 -152 -439 -359 -463 -55 -6 -60 -9 -70 -41 l-6 -23 549 0 550 0 6 26 c4
15 6 28 4 29 -2 2 -30 6 -63 9 -93 11 -131 24 -164 57 -53 53 -49 74 113 639
31 107 58 202 60 210 2 8 32 112 66 230 34 118 75 262 91 320 16 58 33 119 38
135 5 17 24 80 42 140 77 266 138 334 316 352 45 5 52 9 58 30 3 14 4 28 1 31
-7 6 -1067 9 -1071 2z"/>
<path d="M4864 3755 c-7 -5 -50 -139 -96 -297 -71 -242 -82 -287 -69 -291 30
-8 50 8 102 83 161 231 343 340 613 366 80 8 77 24 27 -146 -17 -58 -33 -113
-36 -123 -2 -10 -15 -55 -29 -100 -31 -100 -84 -279 -98 -327 -5 -19 -29 -100
-53 -180 -24 -80 -64 -217 -90 -305 -26 -88 -69 -234 -97 -325 -28 -91 -51
-169 -52 -175 -12 -62 -68 -183 -108 -234 -38 -49 -104 -77 -208 -87 -36 -3
-65 -7 -66 -8 -1 0 -4 -13 -8 -28 l-6 -28 549 0 549 0 6 26 c4 15 5 28 3 30
-2 2 -33 7 -68 10 -79 7 -142 33 -165 70 -32 48 -21 122 61 399 14 50 30 104
35 120 4 17 33 113 63 215 30 102 92 309 136 460 45 151 91 305 102 343 11 37
42 140 68 230 l48 162 54 -2 c242 -11 381 -142 381 -358 0 -44 1 -83 4 -86 2
-4 16 -4 30 0 25 6 30 20 81 196 29 105 62 222 72 260 11 39 24 85 30 103 7
23 7 32 -2 33 -7 0 -403 1 -881 2 -567 1 -873 -1 -882 -8z"/>
<path d="M14823 3733 c2 -28 6 -32 39 -37 58 -9 106 -36 118 -66 6 -15 15 -52
19 -81 10 -74 7 -1776 -3 -1819 -5 -19 -17 -47 -27 -61 -20 -29 -84 -59 -124
-59 -21 0 -25 -5 -25 -30 l0 -30 413 0 414 0 1 30 c1 25 -3 30 -22 30 -32 0
-87 20 -110 39 -52 44 -50 7 -52 1094 -1 554 -4 1010 -7 1014 -4 3 -148 6
-321 7 l-315 1 2 -32z"/>
<path d="M21193 3760 c-16 -5 -18 -12 -14 -56 1 -7 22 -12 51 -13 75 -1 125
-31 152 -91 11 -24 22 -660 12 -660 -3 0 -15 10 -27 23 -45 47 -115 97 -173
124 -53 25 -70 27 -169 28 -128 0 -187 -15 -284 -72 -171 -101 -302 -315 -336
-548 -3 -23 -8 -52 -10 -65 -7 -34 -7 -259 0 -290 3 -14 7 -38 9 -55 6 -47 25
-115 49 -175 98 -251 274 -392 502 -403 144 -8 243 34 364 154 l78 78 1 -102
c0 -149 -3 -137 34 -127 17 5 50 12 72 16 23 3 95 17 161 30 66 14 135 27 154
30 18 3 43 8 55 10 100 21 124 26 141 27 15 2 21 10 23 34 3 29 1 32 -25 31
-15 0 -47 7 -71 17 -48 19 -72 55 -81 120 -2 22 -5 466 -5 987 -1 625 -4 948
-11 949 -49 4 -638 3 -652 -1z m31 -834 c51 -30 114 -96 148 -157 l26 -44 -2
-405 -1 -405 -35 -50 c-133 -193 -303 -218 -396 -59 -34 58 -71 166 -78 229
-3 28 -8 61 -11 75 -8 37 -9 395 -1 470 21 192 79 324 158 363 47 23 137 15
192 -17z"/>
<path d="M11185 3116 c-5 -2 -37 -12 -70 -22 -32 -9 -75 -26 -95 -37 -40 -23
-141 -107 -182 -152 -32 -34 -31 -38 -30 88 1 42 -2 78 -6 78 -4 1 -143 2
-309 3 -199 1 -303 -2 -304 -9 0 -5 -2 -18 -4 -28 -2 -10 2 -20 8 -21 102 -28
130 -48 144 -101 4 -16 8 -285 10 -597 2 -486 0 -574 -13 -612 -17 -49 -39
-68 -105 -88 -38 -11 -44 -17 -45 -40 l-1 -28 393 0 394 0 0 30 c0 22 -5 30
-17 30 -36 1 -102 39 -116 67 -8 15 -18 51 -23 78 -12 83 -11 924 2 954 17 40
112 139 162 168 53 31 132 37 176 13 40 -21 74 -85 81 -155 8 -75 7 -960 0
-999 -13 -65 -57 -111 -117 -121 -34 -6 -38 -10 -38 -36 l0 -29 395 0 395 0 0
29 c0 25 -4 30 -37 36 -50 9 -100 40 -109 68 -4 12 -10 29 -13 37 -2 8 -6 233
-8 499 l-4 483 27 36 c71 92 159 154 234 166 37 6 96 -9 116 -28 23 -24 46
-80 52 -130 9 -73 8 -964 -1 -1008 -14 -66 -76 -121 -142 -127 -10 -1 -15 -12
-15 -31 l0 -30 395 0 395 0 0 30 c0 17 -4 31 -10 31 -5 1 -13 2 -17 3 -5 1
-22 6 -40 10 -45 10 -79 49 -88 99 -4 23 -9 240 -10 482 -2 242 -6 465 -10
495 -3 30 -8 71 -11 90 -10 81 -47 153 -113 223 -73 77 -151 106 -289 105
-168 -1 -282 -58 -459 -231 l-42 -41 -15 35 c-48 113 -145 197 -261 224 -47
11 -188 18 -210 11z"/>
<path d="M13873 3105 c-84 -23 -154 -65 -220 -134 -35 -35 -63 -68 -63 -72 0
-5 -5 -9 -10 -9 -7 0 -10 23 -9 58 1 31 1 73 0 92 l-1 35 -317 0 -318 0 -3
-30 c-3 -28 0 -31 30 -33 18 -2 52 -12 75 -23 81 -39 76 17 77 -1009 1 -498
-2 -928 -7 -957 -12 -76 -70 -123 -153 -123 -17 0 -21 -6 -20 -32 l1 -33 433
0 433 0 -3 30 c-2 25 -8 30 -29 31 -55 2 -111 15 -136 31 -53 35 -56 59 -59
431 l-3 343 66 -60 c109 -99 225 -141 368 -135 187 8 355 115 457 292 27 47
91 212 83 212 -3 0 0 11 5 24 17 46 25 142 25 301 -1 133 -5 176 -24 254 -13
52 -26 102 -30 110 -4 9 -26 54 -49 101 -57 116 -156 220 -262 272 -89 44
-241 59 -337 33z m52 -204 c83 -37 141 -158 161 -333 3 -29 7 -69 10 -88 5
-47 5 -352 -1 -415 -31 -330 -147 -455 -340 -364 -45 21 -154 119 -173 156 -6
10 -10 195 -10 423 0 386 1 407 21 445 21 44 70 110 102 138 61 55 158 71 230
38z"/>
<path d="M19414 3101 c-233 -66 -419 -256 -490 -501 -35 -118 -39 -153 -38
-330 0 -128 4 -171 23 -245 87 -336 290 -509 611 -519 252 -8 450 121 596 388
l37 69 -22 18 c-13 11 -26 19 -30 19 -3 0 -21 -22 -39 -49 -49 -72 -120 -138
-180 -168 -110 -54 -256 -30 -357 58 -57 50 -128 165 -159 258 -26 82 -51 232
-42 257 4 9 92 12 409 12 223 -1 409 2 415 6 6 4 9 12 7 19 -2 7 -6 41 -9 77
-24 299 -168 526 -391 615 -90 36 -245 44 -341 16z m221 -116 c69 -52 110
-179 114 -351 1 -49 4 -102 5 -117 2 -18 -2 -30 -13 -35 -12 -6 -349 -8 -420
-3 -11 1 -13 22 -7 114 3 61 10 128 15 147 25 98 66 184 110 231 46 49 141 56
196 14z"/>
<path d="M9180 3070 c-5 -3 -7 -14 -5 -25 2 -11 4 -22 4 -25 1 -3 15 -7 32 -8
17 -1 49 -12 71 -23 75 -38 73 -20 73 -664 0 -314 -4 -586 -8 -605 -13 -57
-56 -92 -134 -108 -31 -6 -37 -12 -37 -32 l0 -25 412 -3 412 -2 0 29 c0 26 -4
29 -43 35 -82 12 -120 50 -134 131 -3 17 -6 322 -7 680 l-1 650 -313 0 c-173
0 -317 -2 -322 -5z"/>
<path d="M15776 3064 c-12 -31 2 -49 43 -56 64 -11 102 -37 119 -83 13 -34 16
-125 16 -615 1 -556 0 -576 -19 -615 -22 -44 -88 -85 -135 -85 -23 0 -27 -4
-27 -30 l0 -30 414 0 413 0 0 28 c0 26 -4 29 -58 40 -65 13 -96 39 -113 93 -8
23 -12 248 -14 689 -2 360 -3 660 -4 665 -2 15 -629 14 -635 -1z"/>
<path d="M17869 3063 c-4 -42 -3 -48 16 -51 53 -8 106 -26 120 -42 40 -44 44
-100 44 -654 0 -321 -4 -551 -10 -581 -14 -67 -61 -111 -128 -120 -49 -7 -51
-9 -42 -57 0 -5 186 -8 411 -8 l410 0 0 30 c0 17 -5 30 -12 31 -14 1 -43 6
-70 11 -10 2 -31 14 -46 25 -55 40 -56 56 -56 770 -1 359 -3 654 -6 654 -3 1
-146 2 -317 3 -246 1 -313 -1 -314 -11z"/>
<path d="M22442 2024 c-97 -48 -156 -150 -151 -261 3 -67 32 -128 83 -178 125
-121 333 -90 424 63 24 41 27 57 27 132 0 75 -3 91 -27 131 -54 92 -135 138
-239 139 -50 0 -77 -6 -117 -26z"/>
<path d="M23341 2043 c-13 -3 -44 -19 -69 -37 -147 -103 -164 -297 -36 -421
53 -52 115 -74 196 -71 233 8 343 273 187 451 -62 70 -165 99 -278 78z"/>
<path d="M24173 2030 c-106 -48 -171 -160 -160 -276 20 -213 268 -318 437
-184 123 98 134 294 22 403 -78 75 -206 100 -299 57z"/>
</g>
</svg>
