<svg xmlns="http://www.w3.org/2000/svg" width="17.871" height="20.629" viewBox="0 0 17.871 20.629">
  <g id="download_33_" data-name="download (33)" transform="translate(0.1 0.096)">
    <path id="Path_1045" data-name="Path 1045" d="M190.635,146.12c-9.378,0-8.835-.064-9.027.1-2.839,2.839-2.807,2.743-2.807,2.935v3.732h-.925a.64.64,0,0,0-.638.638v12.089a.933.933,0,0,0,.957.925h15.789a.926.926,0,0,0,.925-.925V155.465a.64.64,0,0,0-.638-.638h-.925V148.8a.94.94,0,0,0-.957-.957h-.8v-.765a.96.96,0,0,0-.957-.957Zm-9.122,2.711h-1.627l1.627-1.627Zm-2.073.638h2.392a.3.3,0,0,0,.319-.319v-2.392h8.485a.3.3,0,0,1,.319.319v7.751h-1.276v-5.359a.64.64,0,0,0-.638-.638h-2.552a.64.64,0,0,0-.638.638v5.359h-1.276V153.52a.64.64,0,0,0-.638-.638h-4.5Zm9.6,5.677v5.741h-.957V152.02h.957Zm-2.552,5.741V152.02h.957v8.835h-.957Zm2.552-9.505h-2.552v-1.914h2.552Zm-.223,10.143-1.053,1.882-1.053-1.882Zm-9.7-8.006h4.816v1.308h-6.06v-1.308Zm15.151,12.089a.286.286,0,0,1-.287.287h-15.82a.315.315,0,0,1-.319-.287V155.465h7.974c0,2.169-.032,6.284.032,5.9l1.6,2.871a.338.338,0,0,0,.574,0c1.722-3.094,1.627-2.9,1.627-3.03v-5.741h4.593v10.143Zm-1.882-17.128a.3.3,0,0,1,.319.319v6.029h-1.116V148.48Z" transform="translate(-177.238 -146.107)" fill="#fff" stroke="#fff" stroke-width="0.2"/>
    <path id="Path_1046" data-name="Path 1046" d="M230.535,470h-2.743a.319.319,0,1,0,0,.638h2.743a.3.3,0,0,0,.319-.319.32.32,0,0,0-.319-.319Z" transform="translate(-225.24 -455.602)" fill="#fff" stroke="#fff" stroke-width="0.2"/>
    <path id="Path_1047" data-name="Path 1047" d="M230.535,505.88h-2.743a.319.319,0,1,0,0,.638h2.743a.3.3,0,0,0,.319-.319.32.32,0,0,0-.319-.319Z" transform="translate(-225.24 -489.887)" fill="#fff" stroke="#fff" stroke-width="0.2"/>
    <path id="Path_1048" data-name="Path 1048" d="M230.535,541.75h-2.743a.319.319,0,1,0,0,.638h2.743a.319.319,0,1,0,0-.638Z" transform="translate(-225.24 -524.163)" fill="#fff" stroke="#fff" stroke-width="0.2"/>
    <path id="Path_1049" data-name="Path 1049" d="M308.153,208.016h1.276a.319.319,0,1,0,0-.638h-1.276a.319.319,0,1,0,0,.638Z" transform="translate(-302.029 -204.655)" fill="#fff" stroke="#fff" stroke-width="0.2"/>
    <path id="Path_1050" data-name="Path 1050" d="M252.842,250.753a.3.3,0,0,0-.319-.319H248.6a.319.319,0,0,0,0,.638h3.923a.32.32,0,0,0,.319-.319Z" transform="translate(-245.122 -245.797)" fill="#fff" stroke="#fff" stroke-width="0.2"/>
  </g>
</svg>
