<svg xmlns="http://www.w3.org/2000/svg" width="22.85" height="17.003" viewBox="0 0 22.85 17.003">
  <g id="XMLID_104_" transform="translate(-80.01 -39.992)">
    <path id="XMLID_105_" d="M81.887,43.4h19.1a1.708,1.708,0,1,0,0-3.4h-19.1a1.708,1.708,0,1,0,0,3.4Z" fill="#fff"/>
    <path id="XMLID_106_" d="M100.983,100h-19.1a1.708,1.708,0,1,0,0,3.4h19.1a1.708,1.708,0,1,0,0-3.4Z" transform="translate(0 -53.206)" fill="#fff"/>
    <path id="XMLID_107_" d="M100.983,160h-19.1a1.708,1.708,0,1,0,0,3.4h19.1a1.708,1.708,0,1,0,0-3.4Z" transform="translate(0 -106.413)" fill="#fff"/>
  </g>
</svg>
