<svg xmlns="http://www.w3.org/2000/svg" width="23.019" height="24.371" viewBox="0 0 23.019 24.371">
  <g id="category" transform="translate(0 -0.001)">
    <path id="Path_73" data-name="Path 73" d="M414.4,199.721h-2.146a2.031,2.031,0,0,0-3.831,0h-2.146a.677.677,0,0,0-.677.677V203.1a.677.677,0,0,0,.677.677.677.677,0,0,1,0,1.354.677.677,0,0,0-.677.677v2.707a.677.677,0,0,0,.677.677h2.146a2.031,2.031,0,0,0,3.831,0H414.4a.677.677,0,0,0,.677-.677V200.4a.677.677,0,0,0-.677-.677Zm-.677,8.122h-2.031a.677.677,0,0,0-.677.677.677.677,0,0,1-1.354,0,.677.677,0,0,0-.677-.677h-2.03v-1.469a2.03,2.03,0,0,0,0-3.831v-1.469h2.03a.677.677,0,0,0,.677-.677.677.677,0,0,1,1.354,0,.677.677,0,0,0,.677.677h2.031Z" transform="translate(-392.058 -198.364)" fill="#fff"/>
    <path id="Path_74" data-name="Path 74" d="M337.458,398.562v-2.145a.677.677,0,0,0-.677-.677h-2.707a.677.677,0,0,0-.677.677.677.677,0,0,1-1.354,0,.677.677,0,0,0-.677-.677h-2.707a.677.677,0,0,0-.677.677v2.146h0a2.031,2.031,0,0,0,0,3.831v2.146a.677.677,0,0,0,.677.677h8.122a.677.677,0,0,0,.677-.677v-2.146a2.031,2.031,0,0,0,0-3.831Zm-.677,2.592a.677.677,0,0,0-.677.677v2.031h-6.768v-2.031a.677.677,0,0,0-.677-.677.677.677,0,0,1,0-1.354.677.677,0,0,0,.677-.677v-2.031H330.8a2.03,2.03,0,0,0,3.831,0H336.1v2.031a.677.677,0,0,0,.677.677.677.677,0,0,1,0,1.354Z" transform="translate(-318.503 -382.199)" fill="#fff"/>
    <path id="Path_75" data-name="Path 75" d="M236.807,377.311h-2.146a2.031,2.031,0,0,0-3.831,0h-2.145a.677.677,0,0,0-.677.677v8.122a.677.677,0,0,0,.677.677h2.145a2.031,2.031,0,0,0,3.831,0h2.146a.677.677,0,0,0,.677-.677V383.4a.677.677,0,0,0-.677-.677.677.677,0,0,1,0-1.354.677.677,0,0,0,.677-.677v-2.707a.677.677,0,0,0-.677-.677Zm-.677,2.822a2.031,2.031,0,0,0,0,3.831v1.469H234.1a.677.677,0,0,0-.677.677.677.677,0,1,1-1.354,0,.677.677,0,0,0-.677-.677h-2.031v-6.769h2.031a.676.676,0,0,0,.677-.677.677.677,0,0,1,1.354,0,.677.677,0,0,0,.677.677h2.031Z" transform="translate(-226.652 -363.771)" fill="#fff"/>
    <path id="Path_76" data-name="Path 76" d="M219.072,280.162v-2.146a.677.677,0,0,0-.677-.677h-8.122a.677.677,0,0,0-.677.677v2.146a2.031,2.031,0,0,0,0,3.831v2.146a.677.677,0,0,0,.677.677h2.707a.676.676,0,0,0,.677-.677.677.677,0,0,1,1.354,0,.677.677,0,0,0,.677.677H218.4a.677.677,0,0,0,.677-.677v-2.146a2.031,2.031,0,0,0,0-3.831Zm-.677,2.592a.677.677,0,0,0-.677.677v2.03H216.25a2.031,2.031,0,0,0-3.831,0H210.95v-2.03a.677.677,0,0,0-.677-.677.677.677,0,0,1,0-1.354.676.676,0,0,0,.677-.677v-2.031h6.769v2.031a.677.677,0,0,0,.677.677.677.677,0,0,1,0,1.354Z" transform="translate(-208.24 -271.922)" fill="#fff"/>
  </g>
</svg>
