<svg xmlns="http://www.w3.org/2000/svg" width="18.5" height="20.225" viewBox="0 0 18.5 20.225">
  <path id="Path_24785" data-name="Path 24785" d="M592.75,534.4a1.15,1.15,0,0,1,1.15-1.15h16.2a1.15,1.15,0,0,1,1.15,1.15v11.472a1.149,1.149,0,0,1-.337.813l-2.722,2.722a1.149,1.149,0,0,1-.813.337h-4.539l-3.452,3.451a.949.949,0,0,1-1.621-.672v-2.779H593.9a1.15,1.15,0,0,1-1.15-1.15Zm1.5.35v13.494h3.866a1.15,1.15,0,0,1,1.15,1.15v1.8l2.614-2.615a1.151,1.151,0,0,1,.814-.337h4.539l2.517-2.517V534.75Zm6.219,3.2a.75.75,0,0,1,.75.75v4.272a.75.75,0,0,1-1.5,0V538.7A.75.75,0,0,1,600.469,537.95Zm5.015,0a.75.75,0,0,1,.75.75v4.272a.75.75,0,0,1-1.5,0V538.7A.75.75,0,0,1,605.484,537.95Z" transform="translate(-592.75 -533.25)" fill="#fff" fill-rule="evenodd"/>
</svg>
