<svg id="download_65_" data-name="download (65)" xmlns="http://www.w3.org/2000/svg" width="22.694" height="19.386" viewBox="0 0 22.694 19.386">
  <path id="Path_77" data-name="Path 77" d="M334.912,323.444a55.891,55.891,0,0,0-5.793,3.128,2.221,2.221,0,0,0-.168,3.08,2.094,2.094,0,0,0,3.007.174,57.576,57.576,0,0,0,3.686-5.544.6.6,0,0,0-.059-.7.564.564,0,0,0-.673-.139Zm-3.716,5.508a.971.971,0,0,1-1.394-.081,1.029,1.029,0,0,1,.078-1.426A35.229,35.229,0,0,1,333.6,325.4,36.2,36.2,0,0,1,331.2,328.952Z" transform="translate(-319.425 -316.431)" fill="#fff"/>
  <path id="Path_78" data-name="Path 78" d="M154.937,183.69a11.5,11.5,0,0,0-11.347,11.622,11.786,11.786,0,0,0,2.732,7.559.566.566,0,0,0,.435.2.557.557,0,0,0,.291-.082,17.029,17.029,0,0,1,15.78,0,.563.563,0,0,0,.725-.123,11.791,11.791,0,0,0,2.731-7.559,11.5,11.5,0,0,0-11.347-11.622Zm8.044,18.048a18.377,18.377,0,0,0-16.087,0,10.609,10.609,0,0,1-2.16-6.426,10.206,10.206,0,1,1,20.407,0,10.616,10.616,0,0,1-2.16,6.426Z" transform="translate(-143.59 -183.69)" fill="#fff"/>
  <path id="Path_79" data-name="Path 79" d="M365.81,230.713a.579.579,0,0,0,.572-.586v-1.546a.572.572,0,1,0-1.144,0v1.546A.579.579,0,0,0,365.81,230.713Z" transform="translate(-354.463 -225.789)" fill="#fff"/>
  <path id="Path_80" data-name="Path 80" d="M511.51,405.924a.579.579,0,0,0,.572.586h1.51a.586.586,0,0,0,0-1.171h-1.51A.579.579,0,0,0,511.51,405.924Z" transform="translate(-493.624 -394.301)" fill="#fff"/>
  <path id="Path_81" data-name="Path 81" d="M190.542,405.924a.579.579,0,0,0-.572-.586h-1.509a.586.586,0,0,0,0,1.171h1.509A.579.579,0,0,0,190.542,405.924Z" transform="translate(-185.735 -394.301)" fill="#fff"/>
  <path id="Path_82" data-name="Path 82" d="M492.245,318.042a.593.593,0,0,0-.207.8.568.568,0,0,0,.495.291.561.561,0,0,0,.287-.079l1.3-.777a.593.593,0,0,0,.207-.8.564.564,0,0,0-.782-.212Z" transform="translate(-475.025 -310.538)" fill="#fff"/>
  <path id="Path_83" data-name="Path 83" d="M213.721,479.833l-1.3.776a.593.593,0,0,0-.207.8.569.569,0,0,0,.495.291.557.557,0,0,0,.287-.079l1.3-.776a.593.593,0,0,0,.207-.8.564.564,0,0,0-.781-.212Z" transform="translate(-208.799 -465.012)" fill="#fff"/>
  <path id="Path_84" data-name="Path 84" d="M438.9,255.354a.557.557,0,0,0,.283.077.569.569,0,0,0,.5-.3l.748-1.343a.593.593,0,0,0-.213-.8.564.564,0,0,0-.78.219l-.748,1.343a.593.593,0,0,0,.213.8Z" transform="translate(-424.272 -249.47)" fill="#fff"/>
  <path id="Path_85" data-name="Path 85" d="M280.4,253.7a.564.564,0,0,0-.781-.214.594.594,0,0,0-.209.8l.755,1.338a.569.569,0,0,0,.5.293.56.56,0,0,0,.285-.079.593.593,0,0,0,.209-.8Z" transform="translate(-272.73 -249.937)" fill="#fff"/>
  <path id="Path_86" data-name="Path 86" d="M217.045,318.887l-1.309-.77a.564.564,0,0,0-.78.216.593.593,0,0,0,.211.8l1.309.77a.558.558,0,0,0,.284.078.569.569,0,0,0,.5-.294A.594.594,0,0,0,217.045,318.887Z" transform="translate(-211.414 -311.35)" fill="#fff"/>
  <path id="Path_87" data-name="Path 87" d="M497.769,479.925l-1.308-.769a.564.564,0,0,0-.78.216.593.593,0,0,0,.211.8l1.308.769a.561.561,0,0,0,.284.077.568.568,0,0,0,.5-.294A.593.593,0,0,0,497.769,479.925Z" transform="translate(-478.492 -464.37)" fill="#fff"/>
</svg>
