<svg xmlns="http://www.w3.org/2000/svg" width="19.5" height="13.5" viewBox="0 0 19.5 13.5">
  <g id="Group_607" data-name="Group 607" transform="translate(0 0)">
    <path id="Path_933" data-name="Path 933" d="M736.25,867a3.75,3.75,0,1,1,3.75,3.75,3.75,3.75,0,0,1-3.75-3.75Zm3.75-2.25a2.25,2.25,0,1,0,2.25,2.25A2.25,2.25,0,0,0,740,864.75Z" transform="translate(-730.25 -860.25)" fill="#13a090" fill-rule="evenodd"/>
    <path id="Path_934" data-name="Path 934" d="M732.323,865.646a1.886,1.886,0,0,0,0,2.708,8.418,8.418,0,0,0,1.77,1.8,9.375,9.375,0,0,0,11.814,0,8.418,8.418,0,0,0,1.77-1.8,1.886,1.886,0,0,0,0-2.708,8.419,8.419,0,0,0-1.77-1.8,9.375,9.375,0,0,0-11.814,0,8.421,8.421,0,0,0-1.77,1.8Zm.856-2.991a10.875,10.875,0,0,1,13.642,0,9.873,9.873,0,0,1,2.088,2.136,3.322,3.322,0,0,1,0,4.418,9.873,9.873,0,0,1-2.088,2.136,10.875,10.875,0,0,1-13.642,0,9.872,9.872,0,0,1-2.088-2.136,3.322,3.322,0,0,1,0-4.418,9.872,9.872,0,0,1,2.088-2.136Z" transform="translate(-730.25 -860.25)" fill="#13a090" fill-rule="evenodd"/>
  </g>
</svg>
