<svg xmlns="http://www.w3.org/2000/svg" width="17" height="16.808" viewBox="0 0 17 16.808">
  <path id="Path_827" data-name="Path 827" d="M1497.66,176.781l.16.474h0Zm5-1.667.16.474h0Zm5.05-10.821.35.353Zm-4.42,4.414-.35-.353ZM1493,161.5h14v-1h-14Zm-.5,2.086V162h-1v1.586Zm4.56,4.768-4.41-4.415-.71.707,4.41,4.415Zm-.56,1.06v6.892h1v-6.892Zm0,6.892a1,1,0,0,0,1.32.949l-.32-.949Zm1.32.949,5-1.667-.32-.948-5,1.666Zm5-1.667a1.007,1.007,0,0,0,.68-.948h-1Zm.68-.948v-5.226h-1v5.226Zm3.85-10.7-4.41,4.415.71.707,4.41-4.415Zm.15-1.939v1.586h1V162Zm.56,2.646a1.5,1.5,0,0,0,.44-1.06h-1a.478.478,0,0,1-.15.353Zm-4.56,4.768a.477.477,0,0,1,.15-.353l-.71-.707a1.5,1.5,0,0,0-.44,1.06Zm-7.15-.353a.477.477,0,0,1,.15.353h1a1.5,1.5,0,0,0-.44-1.06Zm-4.85-5.475a1.5,1.5,0,0,0,.44,1.06l.71-.707a.477.477,0,0,1-.15-.353ZM1507,161.5a.5.5,0,0,1,.5.5h1a1.5,1.5,0,0,0-1.5-1.5Zm-14-1a1.5,1.5,0,0,0-1.5,1.5h1a.5.5,0,0,1,.5-.5Z" transform="translate(-1491.5 -160.5)" fill="#5c6e80"/>
</svg>
