<svg id="blog-svgrepo-com" xmlns="http://www.w3.org/2000/svg" width="21.825" height="21.825" viewBox="0 0 21.825 21.825">
  <g id="Group_17928" data-name="Group 17928">
    <g id="Group_17927" data-name="Group 17927">
      <path id="Path_24786" data-name="Path 24786" d="M85.5,205.489H92.85a.345.345,0,1,0,0-.689H85.5a.345.345,0,1,0,0,.689Z" transform="translate(-81.524 -196.07)" fill="#fff"/>
      <path id="Path_24787" data-name="Path 24787" d="M85.5,162.374h4.135a.345.345,0,1,0,0-.689H85.5a.345.345,0,1,0,0,.689Z" transform="translate(-81.524 -154.793)" fill="#fff"/>
      <path id="Path_24788" data-name="Path 24788" d="M86.418,254.327H98.364a1.265,1.265,0,0,0,1.264-1.264v-3.883a1.263,1.263,0,0,0-.169-.632.345.345,0,0,0-.6.345.574.574,0,0,1,.077.287v3.883a.575.575,0,0,1-.574.574H86.418a.575.575,0,0,1-.574-.574v-3.883a.575.575,0,0,1,.574-.574H92.85a.345.345,0,0,0,0-.689H86.418a1.265,1.265,0,0,0-1.264,1.264v3.883A1.265,1.265,0,0,0,86.418,254.327Z" transform="translate(-81.524 -237.349)" fill="#fff"/>
      <path id="Path_24789" data-name="Path 24789" d="M20.336,17.573a2.174,2.174,0,0,0,.111-.687V6.777a2.185,2.185,0,0,0-2.183-2.183H16.311V1.264A1.265,1.265,0,0,0,15.048,0h-.919a1.265,1.265,0,0,0-1.264,1.264V4.595h-9.3A2.185,2.185,0,0,0,1.378,6.777V16.886a2.174,2.174,0,0,0,.111.687,2.183,2.183,0,0,0,.693,4.253h17.46a2.183,2.183,0,0,0,.693-4.253ZM13.555,1.264a.575.575,0,0,1,.574-.574h.919a.575.575,0,0,1,.574.574v.574H13.555V1.264Zm2.068,1.264v8.041h-.689V2.527Zm-2.068,0h.689v8.041h-.689Zm0,8.73h2.068v.881a.116.116,0,0,1-.023.069l-.919,1.225a.115.115,0,0,1-.184,0l-.919-1.225a.116.116,0,0,1-.023-.069v-.881ZM2.068,6.777A1.5,1.5,0,0,1,3.561,5.284h9.3V6.892H10.407a.345.345,0,0,0,0,.689h2.458v4.557a.809.809,0,0,0,.161.482l.919,1.225a.8.8,0,0,0,1.287,0l.919-1.225a.809.809,0,0,0,.161-.482V9.419h1.447a.345.345,0,1,0,0-.689H16.312V7.581h1.447a.345.345,0,0,0,0-.689H16.312V5.284h1.953a1.5,1.5,0,0,1,1.493,1.493V16.886a1.5,1.5,0,0,1-1.493,1.493H3.561a1.5,1.5,0,0,1-1.493-1.493ZM19.643,21.136H2.183a1.493,1.493,0,0,1-.367-2.941,2.18,2.18,0,0,0,1.745.873h14.7a2.18,2.18,0,0,0,1.745-.873,1.493,1.493,0,0,1-.367,2.941Z" fill="#fff"/>
      <path id="Path_24790" data-name="Path 24790" d="M226.749,463.495H226.7a.345.345,0,1,0,0,.689h.046a.345.345,0,0,0,0-.689Z" transform="translate(-216.709 -443.737)" fill="#fff"/>
      <path id="Path_24791" data-name="Path 24791" d="M271.321,463.495h-6.892a.345.345,0,0,0,0,.689h6.892a.345.345,0,0,0,0-.689Z" transform="translate(-252.827 -443.737)" fill="#fff"/>
      <path id="Path_24792" data-name="Path 24792" d="M193.334,463.495h-.046a.345.345,0,0,0,0,.689h.046a.345.345,0,0,0,0-.689Z" transform="translate(-184.718 -443.737)" fill="#fff"/>
      <path id="Path_24793" data-name="Path 24793" d="M74.083,463.495H70.408a.345.345,0,0,0,0,.689h3.676a.345.345,0,0,0,0-.689Z" transform="translate(-67.076 -443.737)" fill="#fff"/>
    </g>
  </g>
</svg>
