<svg xmlns="http://www.w3.org/2000/svg" width="19.985" height="19.986" viewBox="0 0 19.985 19.986">
  <g id="download" transform="translate(0)">
    <path id="Path_1051" data-name="Path 1051" d="M173.015,158.01h-3.687v-.333a3.668,3.668,0,0,0-3.663-3.663h-3.33a3.668,3.668,0,0,0-3.663,3.663v.333h-3.687a.989.989,0,0,0-.976,1v10.657a.989.989,0,0,0,.976,1h6.624L161.386,172H161a.333.333,0,0,0-.266.133l-1,1.332A.333.333,0,0,0,160,174h8a.333.333,0,0,0,.267-.533l-1-1.332A.333.333,0,0,0,167,172h-.384l-.222-1.332h6.624a.989.989,0,0,0,.976-1V159.009a.989.989,0,0,0-.976-1Zm-3.687,2.664a.333.333,0,0,1,.333.333v1.332a.333.333,0,0,1-.333.333h-1v-2Zm-9.658,0v2h-1a.333.333,0,0,1-.333-.333v-1.332a.333.333,0,0,1,.333-.333Zm-4.686-2h3.687v1.332a1,1,0,0,0-1,1v1.332a1,1,0,0,0,1,1H160a.333.333,0,0,0,.333-.333v-2.664a.333.333,0,0,0-.333-.333h-.666v-2.331a3,3,0,0,1,3-3h3.33a3,3,0,0,1,3,3v2.331H168a.333.333,0,0,0-.333.333v2.664h0a.333.333,0,0,0,.333.333h1.332a1,1,0,0,0,1-1v-1.332a1,1,0,0,0-1-1v-1.332h3.687a.326.326,0,0,1,.31.333V168H154.675v-8.992a.326.326,0,0,1,.31-.333Zm12.345,14.653h-6.661l.5-.666h5.662ZM165.938,172h-3.876l.222-1.332h3.432Zm7.077-2h-18.03a.326.326,0,0,1-.31-.333v-1h18.649v1a.326.326,0,0,1-.31.333Z" transform="translate(-154.009 -154.014)" fill="#fff"/>
    <path id="Path_1052" data-name="Path 1052" d="M368.6,487h.666v.666H368.6Z" transform="translate(-358.942 -472.014)" fill="#fff"/>
    <path id="Path_1053" data-name="Path 1053" d="M199.406,195.6a1,1,0,0,0,.938-.666h4.391a1,1,0,0,0,1-1v-1.665h1.332v1.665a1,1,0,0,0,1,1h4.391a1,1,0,1,0,0-.666h-4.391a.333.333,0,0,1-.333-.333V192.27h.666a1,1,0,0,0,1-1v-5.994a.332.332,0,0,0-.1-.236l-1.332-1.332a.333.333,0,0,0-.235-.1H204.4a1,1,0,0,0-1,1v6.66a1,1,0,0,0,1,1h.666v1.665a.333.333,0,0,1-.333.333h-4.391a1,1,0,1,0-.938,1.332Zm13.987-1.332h0a.333.333,0,1,1-.333.333.333.333,0,0,1,.333-.333Zm-4.8-8.992h-.861v-.861Zm-4.524,5.994v-6.66a.333.333,0,0,1,.333-.333h2.664v1.332a.333.333,0,0,0,.333.333h1.332v5.328a.333.333,0,0,1-.333.333h-4a.333.333,0,0,1-.333-.333Zm-4.662,3a.328.328,0,1,1-.237.1.333.333,0,0,1,.237-.1Z" transform="translate(-196.409 -182.278)" fill="#fff"/>
    <path id="Path_1054" data-name="Path 1054" d="M333.856,228.253a.344.344,0,0,0-.511,0l-1.665,2a.333.333,0,0,0,.256.546h.333v1.665a.333.333,0,0,0,.333.333h2a.333.333,0,0,0,.333-.333V230.8h.333a.333.333,0,0,0,.256-.546Zm.41,2.211v1.665h-1.332v-1.665a.333.333,0,0,0-.29-.33l.956-1.148.956,1.148h0a.333.333,0,0,0-.29.33Z" transform="translate(-323.61 -224.803)" fill="#fff"/>
  </g>
</svg>
