<svg xmlns="http://www.w3.org/2000/svg" width="19.183" height="14.997" viewBox="0 0 19.183 14.997">
  <path id="Path_859" data-name="Path 859" d="M617.172,1041.6a11.56,11.56,0,0,0-7.682-3.1v-2.76a1.1,1.1,0,0,0-1.862-.726l-6.363,6.461a1.027,1.027,0,0,0,0,1.451l6.363,6.461a1.078,1.078,0,0,0,1.164.238,1.1,1.1,0,0,0,.7-.964v-2.784c2.07-.059,6.933.155,8.717,3.308a.98.98,0,0,0,.879.512,1.024,1.024,0,0,0,1.06-1.035,10.947,10.947,0,0,0-2.976-7.057Zm-8.872,2.249a.991.991,0,0,0-.879,1.035v1.237l-3.88-3.926,3.88-3.926v1.237a.994.994,0,0,0,.983,1.035c5.561,0,7.916,2.665,8.923,4.938-3.647-2.179-8.768-1.649-9.027-1.629Z" transform="translate(-600.965 -1034.7)" fill="#13a090"/>
</svg>
