<svg xmlns="http://www.w3.org/2000/svg" width="20.338" height="17.773" viewBox="0 0 20.338 17.773">
  <path id="Path_1041" data-name="Path 1041" d="M515.788,543.02a.755.755,0,0,0,.132.031l.183.431c.177.417.415.982.661,1.572.5,1.2,1.009,2.44,1.121,2.795a2.967,2.967,0,0,0,.445.939,1.15,1.15,0,0,0,.29.267.854.854,0,0,0,.178.085h.008a1.183,1.183,0,0,0,.795.009,1.335,1.335,0,0,0,.232-.1q.043-.025.072-.045h0l2.826-1.762,3.265,2.5a.767.767,0,0,0,.156.093,2.1,2.1,0,0,0,1.129.182,1.728,1.728,0,0,0,.851-.368,2,2,0,0,0,.433-.487,1.9,1.9,0,0,0,.1-.18c.012-.024.021-.044.028-.061l.01-.022v-.008h0a.755.755,0,0,0,.04-.133l2.98-15.025a.8.8,0,0,0,.014-.146,1.272,1.272,0,0,0-.556-1.112,1.5,1.5,0,0,0-.938-.209,2.885,2.885,0,0,0-.644.132c-.082.026-.15.051-.2.07l-.061.024-.011.005-16.714,6.556h0l-.04.015c-.033.013-.076.031-.127.054a2.377,2.377,0,0,0-.379.212,1.373,1.373,0,0,0-.662,1.285,1.571,1.571,0,0,0,.689,1.071,2.249,2.249,0,0,0,.339.2c.042.02.127.055.165.07h.009Zm14.138-9.152h0l-.026.01-16.734,6.565-.026.01h-.009l-.052.022-.04.019c.019.01.037.02.053.027l.033.015,3.143,1.058a.716.716,0,0,1,.16.076L526.8,535.6l.01-.005.029-.017a1.117,1.117,0,0,1,.1-.051,2,2,0,0,1,.317-.131,1.077,1.077,0,0,1,.645-.014.853.853,0,0,1,.482.387.885.885,0,0,1,.106.3.835.835,0,0,1,0,.424,1.394,1.394,0,0,1-.438.653c-.15.14-2.1,2.016-4.014,3.868l-2.613,2.521-.465.449,5.872,4.5a.536.536,0,0,0,.251.04.225.225,0,0,0,.117-.052.48.48,0,0,0,.1-.119h0l2.89-14.573c-.043.01-.086.023-.128.036s-.086.029-.112.039l-.027.011Zm-8.461,12.394-1.172-.9-.284,1.8Zm-2.247-2.681,1.165-1.124L523,539.935l.973-.938-6.52,3.817.035.082c.177.419.417.987.664,1.579.186.443.379.909.555,1.341l.284-1.8A.75.75,0,0,1,519.218,543.581Z" transform="translate(-511.401 -532.258)" fill="#13a090" fill-rule="evenodd"/>
</svg>
