<svg xmlns="http://www.w3.org/2000/svg" width="19.281" height="18.402" viewBox="0 0 19.281 18.402">
  <path id="download_45_" data-name="download (45)" d="M159.336,158.364a.433.433,0,0,0-.412-.3l-6.529.012-2.007-6.214a.433.433,0,0,0-.824,0l-2.006,6.214-6.529-.013a.433.433,0,0,0-.254.784l5.29,3.828-2.031,6.206a.433.433,0,0,0,.667.484l5.275-3.847,5.275,3.847a.433.433,0,0,0,.667-.484l-2.029-6.205,5.29-3.828h0a.433.433,0,0,0,.158-.485Zm-6.211,3.8a.432.432,0,0,0-.158.485l1.711,5.231-4.447-3.243a.434.434,0,0,0-.511,0l-4.447,3.243,1.711-5.232a.433.433,0,0,0-.158-.485l-4.459-3.226,5.5.011h0a.433.433,0,0,0,.412-.3l1.692-5.238,1.691,5.238a.433.433,0,0,0,.412.3l5.505-.01Z" transform="translate(-140.337 -151.312)" fill="#13a090" stroke="#13a090" stroke-width="0.5"/>
</svg>
