<svg xmlns="http://www.w3.org/2000/svg" width="24.542" height="26.091" viewBox="0 0 24.542 26.091">
  <g id="Group_604" data-name="Group 604" transform="translate(0 0)">
    <path id="Path_907" data-name="Path 907" d="M442,323.938a5.937,5.937,0,1,0,5.938,5.937A5.937,5.937,0,0,0,442,323.938Z" transform="translate(-429.729 -323.938)" fill="#0066cd"/>
    <path id="Path_908" data-name="Path 908" d="M435.667,338.979a5.938,5.938,0,0,0-5.938,5.938V346.8a2.434,2.434,0,0,0,2.042,2.4,63.49,63.49,0,0,0,20.459,0,2.433,2.433,0,0,0,2.041-2.4v-1.881a5.937,5.937,0,0,0-5.939-5.938h-.538a2.758,2.758,0,0,0-.86.137l-1.371.448a11.478,11.478,0,0,1-7.126,0l-1.37-.448a2.762,2.762,0,0,0-.861-.137Z" transform="translate(-429.729 -323.938)" fill="#0066cd"/>
  </g>
</svg>
